<?xml version="1.0" encoding="utf-8"?>
<!-- Generator: Adobe Illustrator 21.0.2, SVG Export Plug-In . SVG Version: 6.00 Build 0)  -->
<svg version="1.1" xmlns="http://www.w3.org/2000/svg" xmlns:xlink="http://www.w3.org/1999/xlink" x="0px" y="0px"
	 viewBox="0 0 412.3 349.4" style="enable-background:new 0 0 412.3 349.4;" xml:space="preserve">
<style type="text/css">
	.st0{display:none;fill:#474747;}
	.st1{fill:#FFFFFF;}
	.st2{display:none;}
</style>
<g id="Layer_1">
	<rect class="st0" width="412.3" height="349.5"/>
	<rect id="I" x="396.6" y="249.1" class="st1" width="15.7" height="96.4"/>
	<polygon id="Z" class="st1" points="314.9,345.5 364,262.4 323.1,262.4 323.1,249.1 388.1,249.1 339.4,331.5 388.7,331.5 
		388.7,345.5 	"/>
	<path id="M" class="st1" d="M110.8,297.9c-0.2-0.8-0.5-2.8-0.9-6.2c-0.4-2.8-0.7-5.1-0.9-7c-0.4,2.2-1,4.4-1.7,6.6
		c-0.7,2.2-1.6,4.4-2.7,6.7l-25.3,51.4L54.1,297c-1.1-2.2-2-4.2-2.7-6.3c-0.8-2-1.4-4-2-6c0,2-0.2,4.1-0.5,6.3s-0.7,4.5-1.3,7
		l-10.3,47.5H22.9L45.7,245l28.4,60.9c0.5,1,1.1,2.6,2,4.8s2,5,3.3,8.3c0.9-2.8,2.4-6.3,4.3-10.5c0.5-1.1,0.9-2,1.2-2.6l27.8-60.8
		L136,345.6h-14.5L110.8,297.9z"/>
	<path id="O" class="st1" d="M224.9,297.5c0-4.9-0.9-9.5-2.7-13.9c-1.8-4.4-4.3-8.3-7.7-11.7c-3.2-3.4-7-6-11.3-7.8
		s-8.8-2.7-13.5-2.7s-9.3,0.9-13.5,2.7c-4.3,1.8-8.1,4.4-11.4,7.8c-3.3,3.4-5.9,7.3-7.6,11.6c-1.8,4.4-2.6,9.1-2.6,14
		s0.9,9.5,2.6,13.8c1.8,4.3,4.3,8.2,7.6,11.6c3.3,3.4,7.1,6,11.4,7.8c4.2,1.8,8.8,2.7,13.6,2.7c4.7,0,9.2-0.9,13.4-2.7
		c4.2-1.8,8-4.4,11.4-7.8c3.4-3.4,5.9-7.3,7.7-11.7C224,306.9,224.9,302.3,224.9,297.5L224.9,297.5z M241.3,297.5
		c0,6.9-1.3,13.3-3.8,19.4c-2.6,6.1-6.3,11.6-11.2,16.3c-5,4.8-10.6,8.5-16.8,11c-6.2,2.5-12.8,3.8-19.6,3.8
		c-6.9,0-13.6-1.3-19.9-3.8c-6.3-2.6-11.9-6.2-16.7-11c-4.9-4.8-8.7-10.2-11.2-16.3c-2.5-6-3.8-12.5-3.8-19.5
		c0-6.9,1.3-13.4,3.8-19.5s6.3-11.6,11.2-16.4s10.5-8.4,16.7-10.9c6.2-2.5,12.8-3.8,19.8-3.8c6.9,0,13.5,1.3,19.7,3.8
		s11.8,6.1,16.7,10.9c4.9,4.9,8.7,10.4,11.2,16.5C240,284.2,241.3,290.7,241.3,297.5z"/>
	<path id="B" class="st1" d="M268.5,289.8h6c7.5,0,12.7-1,15.8-3.1c3.1-2,4.6-5.5,4.6-10.3c0-5.3-1.4-9-4.3-11.1
		c-2.9-2.1-8.3-3.2-16.2-3.2h-6L268.5,289.8L268.5,289.8z M268.5,332.4h5.4c5.5,0,9.6-0.2,12.3-0.7s4.9-1.2,6.5-2.3
		c1.9-1.3,3.4-3,4.5-5.1c1.1-2.2,1.6-4.5,1.6-7.1c0-3.1-0.6-5.8-1.9-8c-1.3-2.3-3.1-4.1-5.5-5.3c-1.5-0.8-3.2-1.3-5.1-1.7
		c-1.9-0.3-4.5-0.5-7.6-0.5H274h-5.4L268.5,332.4L268.5,332.4z M253.1,345.5v-96.4h24.3c6.9,0,12.1,0.4,15.4,1.1s6.1,2,8.5,3.7
		c3,2.2,5.3,5.1,6.9,8.6c1.6,3.6,2.5,7.5,2.5,11.8c0,5.1-1.2,9.4-3.6,12.9c-2.4,3.4-5.8,5.8-10.3,7.2c5.6,0.9,10,3.4,13.3,7.7
		c3.2,4.2,4.8,9.6,4.8,16c0,3.9-0.7,7.6-2,11.1s-3.3,6.5-5.8,9c-2.6,2.7-5.9,4.6-9.8,5.7c-3.9,1.1-10.5,1.6-19.7,1.6L253.1,345.5
		L253.1,345.5z"/>
	<rect id="I_1_" y="249.1" class="st1" width="15.7" height="96.4"/>
	<path id="Nuvem" class="st1" d="M283.1,61.7c-2.6,0-5.3,0.2-7.8,0.5C263.2,26.1,229.1,0,188.9,0c-41,0-75.7,27.1-87.1,64.3
		C77.1,71.8,59.1,94.8,59.1,122c0,33.3,27,60.3,60.3,60.3c2.6,0,5.1-0.2,7.6-0.5c1,0.3,2.1,0.5,3.2,0.5h150.7c0.3,0,0.5,0,0.7,0
		c0.5,0,1,0,1.5,0c33.3,0,60.3-27,60.3-60.3S316.4,61.7,283.1,61.7z M286.1,172.7c-1.6,0.2-3.2,0.3-4.9,0.3c-19.8,0-54,0.6-81,0.6
		c-30.9,0-64.7,0.3-83.6-0.6c-3.2-0.1-6.1-0.7-8.7-1.5c-22.9-5-40.1-25.5-40.1-49.9c0-28.2,22.9-51.1,51.1-51.1
		c25.5,0,46.7,18.7,50.5,43.1h0.8v-0.7c0-28.2-22.9-51.1-51.1-51.1c-2.5,0-5,0.2-7.4,0.5C123.3,30.9,153.6,8.4,189,8.4
		c39.2,0,72,27.4,80.3,64c4.5-1.3,9.3-2,14.3-2c28.2,0,51.1,22.9,51.1,51.1C334.8,149.1,313.2,171.5,286.1,172.7z"/>
</g>
<g id="Guias" class="st2">
</g>
</svg>
